<?xml version="1.0" encoding="UTF-8" standalone="no"?>
<svg
   xmlns:dc="http://purl.org/dc/elements/1.1/"
   xmlns:cc="http://creativecommons.org/ns#"
   xmlns:rdf="http://www.w3.org/1999/02/22-rdf-syntax-ns#"
   xmlns:svg="http://www.w3.org/2000/svg"
   xmlns="http://www.w3.org/2000/svg"
   xmlns:xlink="http://www.w3.org/1999/xlink"
   xmlns:sodipodi="http://sodipodi.sourceforge.net/DTD/sodipodi-0.dtd"
   xmlns:inkscape="http://www.inkscape.org/namespaces/inkscape"
   id="Layer_1"
   data-name="Layer 1"
   viewBox="0 0 640 640"
   version="1.1"
   sodipodi:docname="zeye.svg"
   inkscape:version="0.92.4 (5da689c313, 2019-01-14)">
  <metadata
     id="metadata1159">
    <rdf:RDF>
      <cc:Work
         rdf:about="">
        <dc:format>image/svg+xml</dc:format>
        <dc:type
           rdf:resource="http://purl.org/dc/dcmitype/StillImage" />
        <dc:title>logoo </dc:title>
      </cc:Work>
    </rdf:RDF>
  </metadata>
  <sodipodi:namedview
     pagecolor="#ffffff"
     bordercolor="#666666"
     borderopacity="1"
     objecttolerance="10"
     gridtolerance="10"
     guidetolerance="10"
     inkscape:pageopacity="0"
     inkscape:pageshadow="2"
     inkscape:window-width="1366"
     inkscape:window-height="741"
     id="namedview1157"
     showgrid="false"
     inkscape:zoom="0.5"
     inkscape:cx="86.400748"
     inkscape:cy="273.19437"
     inkscape:window-x="0"
     inkscape:window-y="0"
     inkscape:window-maximized="1"
     inkscape:current-layer="g2557" />
  <defs
     id="defs1098">
    <linearGradient
       inkscape:collect="always"
       id="linearGradient2485-5">
      <stop
         style="stop-color:#0095c4;stop-opacity:1;"
         offset="0"
         id="stop2481" />
      <stop
         style="stop-color:#00bae4;stop-opacity:1"
         offset="1"
         id="stop2483" />
    </linearGradient>
    <style
       id="style1096">.cls-1{fill:#00b1df;}.cls-2{fill:#319abc;}.cls-3{fill:#2eb1b5;}.cls-4{fill:#1794c7;}.cls-5{fill:#1299c9;}.cls-6{fill:#0095cf;}.cls-7{fill:#00b9e2;}.cls-8{fill:#33abc0;}.cls-9{fill:#1095b1;}.cls-10{fill:#3597b9;}.cls-11{fill:#2893b3;}.cls-12{fill:#3897b5;}.cls-13{fill:#c0f6fc;}.cls-14{fill:#2392a8;}.cls-15{fill:#54aaad;}.cls-16{fill:#7999a7;}</style>
    <linearGradient
       inkscape:collect="always"
       xlink:href="#linearGradient2485-5"
       id="linearGradient2494"
       gradientUnits="userSpaceOnUse"
       x1="0"
       y1="319.98001"
       x2="639.96997"
       y2="319.98001"
       spreadMethod="pad" />
    <linearGradient
       inkscape:collect="always"
       xlink:href="#linearGradient2485-5"
       id="linearGradient2559"
       gradientUnits="userSpaceOnUse"
       x1="0"
       y1="319.98001"
       x2="639.96997"
       y2="319.98001"
       spreadMethod="pad" />
  </defs>
  <title
     id="title1100">logoo </title>
  <g
     id="g2528">
    <g
       id="g2557"
       transform="matrix(0.93754395,0,0,0.9375586,32.526912,11.675729)">
      <path
         class="cls-1"
         d="m 582.42,163.06 a 20.86,20.86 0 0 1 2.69,-2 21.85,21.85 0 0 0 -2.69,2 z"
         id="path1102"
         inkscape:connector-curvature="0"
         style="fill:#00b1df" />
      <path
         class="cls-1"
         d="m 585.11,161.09 a 17.18,17.18 0 0 1 2.2,-1.17 18.54,18.54 0 0 0 -2.2,1.17 z"
         id="path1104"
         inkscape:connector-curvature="0"
         style="fill:#00b1df" />
      <path
         class="cls-1"
         d="m 596.56,159.29 a 11.37,11.37 0 0 0 -1.76,-0.45 11.09,11.09 0 0 1 1.76,0.45 z"
         id="path1106"
         inkscape:connector-curvature="0"
         style="fill:#00b1df" />
      <path
         class="cls-2"
         d="m 277.93,48.13 c 7.41,-0.42 14.68,-2 22,-2.92 17.45,0.19 35,-1 52.37,1.34 -2.51,0.26 -5,0.51 -7.53,0.63 a 294.25,294.25 0 0 0 -65.65,2.14 c -8.56,1.13 -16.94,3.2 -25.45,4.64 7.33,-4.25 16.01,-4.9 24.26,-5.83 z"
         id="path1108"
         inkscape:connector-curvature="0"
         style="fill:#319abc" />
      <path
         class="cls-2"
         d="m 353.74,99.49 c 1.79,-0.18 3.59,-0.37 5.4,-0.47 a 184.37,184.37 0 0 1 25.11,5.73 52,52 0 0 1 -11.6,-1.39 C 366.43,101.66 360,101 353.74,99.49 Z"
         id="path1110"
         inkscape:connector-curvature="0"
         style="fill:#319abc" />
      <path
         style="fill:#00acd7;fill-opacity:1"
         class="cls-2"
         d="m 414.58,297.58 c 11.06,-13.36 21.74,-27.06 33.29,-40 a 46.62,46.62 0 0 1 -3.66,6.6 c -7,9.27 -15,17.74 -21.94,27.1 -12.15,14.47 -24,29.2 -36,43.81 l -2.43,0.07 c 9.97,-12.76 20.59,-24.98 30.74,-37.58 z"
         id="path1112"
         inkscape:connector-curvature="0" />
      <path
         class="cls-2"
         d="M 43.64,384.32 A 298.3,298.3 0 0 1 41.56,282.73 c 0.23,1.84 0.48,3.67 0.65,5.52 -2.14,18.49 -3.74,37.17 -2.1,55.77 0.89,19 4.28,37.71 8.68,56.15 a 37.44,37.44 0 0 1 -5.15,-15.85 z"
         id="path1114"
         inkscape:connector-curvature="0"
         style="fill:#319abc" />
      <path
         class="cls-2"
         d="m 311.08,351.31 c 2.3,-6.16 5.82,-13 12.51,-15.15 a 169.62,169.62 0 0 1 -12.51,15.15 z"
         id="path1116"
         inkscape:connector-curvature="0"
         style="fill:#00a6d3;fill-opacity:1" />
      <path
         class="cls-2"
         d="m 231.63,416 a 108.93,108.93 0 0 1 8.3,-10.37 c -0.68,2.06 -1,4.28 -2.12,6.19 -1.53,2.05 -4.07,2.9 -6.18,4.18 z"
         id="path1118"
         inkscape:connector-curvature="0"
         style="fill:#319abc" />
      <path
         style="fill:#00a8d4;fill-opacity:1"
         class="cls-2"
         d="m 364.05,546.22 c 11.93,-2.15 23.16,-7.22 35.2,-8.83 a 140.49,140.49 0 0 1 -14.48,5.24 233.28,233.28 0 0 1 -108.55,6.11 c -1.45,-0.51 -2.88,-1.07 -4.3,-1.63 3.52,0.24 7,0.55 10.55,0.83 8.15,1.38 16.39,1.94 24.6,2.89 14,0.93 28,-0.82 41.89,-2.14 5.04,-0.52 10.04,-1.55 15.09,-2.47 z"
         id="path1120"
         inkscape:connector-curvature="0" />
      <path
         style="fill:#00a8d5;fill-opacity:1"
         class="cls-2"
         d="m 329,601.74 c 22,-0.37 43.72,-4.79 65.09,-9.82 -4.14,3.86 -10,4 -15.21,5.18 a 232.85,232.85 0 0 1 -46.88,6 273.55,273.55 0 0 1 -72.56,-5.36 c -5.42,-0.88 -10.91,-1.81 -15.84,-4.33 2.18,0.09 4.36,0.2 6.53,0.49 a 285.27,285.27 0 0 0 45.93,7.41 c 10.94,0.35 21.94,1.52 32.94,0.43 z"
         id="path1122"
         inkscape:connector-curvature="0" />
      <path
         class="cls-3"
         d="m 352.75,47.83 a 72.74,72.74 0 0 1 23.85,2.56 c 9.91,1.66 19.62,4.23 29.32,6.84 6.79,2.43 13.78,4.36 20.25,7.62 7.36,3.66 15.92,5.38 21.93,11.35 C 438,71.7 427.94,67 417.49,63.31 396.67,55.38 374.76,50.88 352.75,47.83 Z"
         id="path1124"
         inkscape:connector-curvature="0"
         style="fill:#2eb1b5" />
      <path
         class="cls-3"
         d="m 591.62,256 a 37.31,37.31 0 0 1 4,12.4 c 1.35,11.19 3.75,22.27 4,33.57 0.11,6.63 0.91,13.23 0.9,19.87 a 372.55,372.55 0 0 1 -3.44,42.2 c -1.19,6.85 -1.42,14.12 -5.09,20.25 0.83,-6.58 2.34,-13 3.49,-19.58 a 293.57,293.57 0 0 0 1.3,-77.72 c -0.94,-10.47 -3.54,-20.66 -5.16,-30.99 z"
         id="path1126"
         inkscape:connector-curvature="0"
         style="fill:#2eb1b5" />
      <path
         style="fill:#00a6d3;fill-opacity:1"
         class="cls-4"
         d="m 255.65,105.27 c 20.19,-6 41.29,-9.43 62.39,-9.06 -8.32,4.68 -18,1.55 -26.94,3.24 -10.67,2 -21.44,3.68 -31.87,6.84 -1.23,-0.29 -2.4,-0.66 -3.58,-1.02 z"
         id="path1128"
         inkscape:connector-curvature="0" />
      <path
         style="fill:#00a8d4;fill-opacity:1"
         class="cls-5"
         d="m 319.52,96.2 c 11.36,-0.73 22.78,0.53 34,2.19 a 82.87,82.87 0 0 1 -8.31,0.69 c -5.8,-0.41 -11.62,-0.43 -17.43,-0.47 -2.95,0.1 -5.63,-1.25 -8.26,-2.41 z"
         id="path1130"
         inkscape:connector-curvature="0" />
      <path
         class="cls-6"
         d="m 629,236.47 c -7.59,-26.91 -18.07,-53.16 -32.46,-77.18 v 0 c -0.17,-0.28 -0.51,-0.85 -0.69,-1.13 -7.67,-14.17 -17.39,-27.06 -27.31,-39.7 C 525.36,64.71 464.05,25.88 397.1,9.42 385.1,6.26 372.75,4.36 360.45,2.53 352,1.22 343.47,1.62 335.1,0 h -30.34 c -7.8,1.07 -15.68,1.46 -23.49,2.4 a 316.6,316.6 0 0 0 -78.95,20 c -17.44,7.11 -34.63,15.15 -50.41,25.5 A 310.82,310.82 0 0 0 76.1,112.86 318.86,318.86 0 0 0 13.91,226.8 C 5.09,254.51 1,283.55 0,312.56 v 18.81 c 1.09,14.92 2,29.91 5,44.63 9.94,57.31 36.29,111.49 74.56,155.23 a 320.51,320.51 0 0 0 113.64,82.52 c 36.42,16 75.94,24.39 115.63,26.21 h 1 25.47 c 11.67,-1.35 23.44,-1.87 35,-4 A 273.1,273.1 0 0 0 416,625.15 l 2.27,-0.8 c 40.34,-12.53 77.76,-33.92 109.88,-61.28 7.64,-7 15.54,-13.71 22.58,-21.31 12,-13.17 23.79,-26.58 33.61,-41.46 a 321.08,321.08 0 0 0 44.9,-98.17 c 6.37,-23.38 9.52,-47.55 10.73,-71.71 V 304.73 C 638.09,281.74 635,258.78 629,236.47 Z m -546,233.36 -0.55,0.53 -2.63,2.49 c -1,-1.71 -2,-3.42 -3,-5.15 a 285.06,285.06 0 0 1 -20.52,-44 c -2.87,-7.73 -5,-15.69 -7.49,-23.54 A 37.44,37.44 0 0 1 43.66,384.31 298.3,298.3 0 0 1 41.58,282.72 c 0.23,1.84 0.48,3.67 0.65,5.52 A 277.29,277.29 0 0 1 75.3,190 281.71,281.71 0 0 1 132,119 c 22.53,-20.72 48.81,-37.09 76.66,-49.66 7,-2.33 13.68,-5.69 20.73,-8 8,-2.91 16.27,-4.71 24.32,-7.36 7.34,-4.25 16,-4.9 24.24,-5.83 7.41,-0.42 14.68,-2 22,-2.92 17.45,0.19 35,-1 52.37,1.34 -2.51,0.26 -5,0.51 -7.53,0.63 2.65,0.2 5.31,0.41 8,0.65 a 72.74,72.74 0 0 1 23.85,2.56 c 9.91,1.66 19.62,4.23 29.32,6.84 6.79,2.43 13.78,4.36 20.25,7.62 7.36,3.66 15.92,5.38 21.93,11.35 13.44,7.58 26.9,15.22 39.31,24.44 14.94,11.14 29.09,23.46 41.33,37.55 3,3.38 6.41,6.34 8.88,10.12 a 17.5,17.5 0 0 1 -2.88,4.4 c -11.8,13.88 -23.16,28.15 -35.26,41.77 -17.13,21.1 -34.66,41.87 -51.61,63.1 a 46.62,46.62 0 0 1 -3.66,6.6 c -7,9.27 -15,17.74 -21.94,27.1 -12.15,14.47 -24,29.2 -36,43.81 l -2.43,0.07 c -3.94,4.89 -8.15,9.56 -11.85,14.65 a 66.65,66.65 0 0 1 -3.93,9.06 139.13,139.13 0 0 0 15.95,0.06 c 10,-0.5 20,0.44 30,0.16 12.33,-0.34 24.67,-0.26 37,0 6.73,0.24 13.69,-1.56 20.18,1 l 0.86,0.15 C 460,372.91 447.34,385 435.21,397.52 c -1.1,1.12 -2.2,2.24 -3.36,3.3 -4.69,2 -9.89,1.32 -14.85,1.36 -42.34,0 -84.68,0.13 -127,0.09 a 162.89,162.89 0 0 1 -18.49,-0.4 L 272,401 c 7.43,-11 16.67,-20.55 24.49,-31.24 4.95,-6.08 10.07,-12 14.57,-18.48 2.3,-6.16 5.82,-13 12.51,-15.15 25.71,-31.79 51.12,-63.83 76.8,-95.65 q -0.06,-2.61 -0.09,-5.22 l 5.12,-0.89 c 21.78,-27.7 44.28,-54.83 66,-82.57 -24.87,-22.22 -55.26,-37.79 -87.18,-47.08 a 52,52 0 0 1 -11.6,-1.39 c -6.22,-1.7 -12.65,-2.35 -18.91,-3.87 1.79,-0.18 3.59,-0.37 5.4,-0.47 -1.86,-0.27 -3.73,-0.47 -5.6,-0.63 a 82.87,82.87 0 0 1 -8.31,0.69 c -5.8,-0.41 -11.62,-0.43 -17.43,-0.47 -3,0.1 -5.65,-1.25 -8.28,-2.41 H 318 c -8.32,4.68 -18,1.55 -26.94,3.24 -10.67,2 -21.44,3.68 -31.87,6.84 -1.2,-0.32 -2.4,-0.66 -3.58,-1 a 231.17,231.17 0 0 0 -58.58,26.43 C 154.84,158.51 121.4,199.11 104,246.06 A 232.17,232.17 0 0 0 89.74,311 c -2.13,35.64 2.39,72.44 18,104.88 a 11.16,11.16 0 0 1 4.09,8.47 c 1.7,3.64 3.67,7.14 5.6,10.65 C 106.21,446.9 94.41,458.17 83,469.83 Z M 364.5,246.35 c -8.11,1.39 -16.33,0.24 -24.49,0.59 -44.59,0.1 -89.19,0.39 -133.77,0.11 l 0.52,-0.61 1.42,-0.61 c 49.14,-0.49 98.31,0.12 147.45,-0.08 2.96,0.03 5.91,0.25 8.86,0.6 z M 597.08,364 c -1.19,6.85 -1.42,14.12 -5.09,20.25 -2.08,6.37 -3.11,13 -5.36,19.36 -2.63,7.39 -5,14.88 -7.92,22.17 A 283,283 0 0 1 420,583 c -6.45,2.65 -13.21,4.47 -19.66,7.1 a 29.08,29.08 0 0 1 -6.24,1.86 c -4.14,3.86 -10,4 -15.21,5.18 a 232.85,232.85 0 0 1 -46.88,6 273.55,273.55 0 0 1 -72.56,-5.36 c -5.42,-0.88 -10.91,-1.81 -15.84,-4.33 2.18,0.09 4.36,0.2 6.53,0.49 -47,-11.09 -90.35,-35.43 -125.64,-68.16 A 22.87,22.87 0 0 1 111.75,513 c -3.55,-4.35 -8,-8.05 -10.69,-13.05 0.92,-2.47 2.78,-4.41 4.4,-6.42 6.93,-8.1 13.62,-16.39 20.34,-24.65 4.22,-5.38 9.29,-10 13.42,-15.46 q 60.61,-73.49 121,-147.13 c 4.7,-5.78 9.86,-11.24 13.68,-17.68 -35.78,-0.7 -71.57,0.09 -107.35,-0.43 5.67,-6.82 12.33,-12.72 18.49,-19.08 6.85,-7.17 14.43,-13.68 20.66,-21.41 42.76,-0.29 85.52,0 128.28,-0.13 10.64,0.13 21.3,-0.28 31.93,0.23 -2.83,4.46 -6.32,8.45 -9.59,12.58 q -40.93,51.14 -81.95,102.21 C 263,377 251.08,391 239.93,405.65 c -0.68,2.06 -1,4.28 -2.12,6.19 -1.53,2 -4.07,2.88 -6.18,4.18 -2.81,3.06 -5.5,6.24 -8,9.57 -10.46,13.45 -21.39,26.54 -31.82,40 a 42.32,42.32 0 0 1 -5.33,8.85 c -3.79,4.59 -7,9.66 -10.93,14.11 -1.81,2.13 -3.79,4.17 -5.06,6.68 0.68,2.44 2.73,4.11 4.53,5.74 a 146.11,146.11 0 0 0 21.65,15.25 29.92,29.92 0 0 1 7.3,6.16 c 22.17,13.13 47,21.62 72.25,26.35 -1.45,-0.51 -2.88,-1.07 -4.3,-1.63 3.52,0.24 7,0.55 10.55,0.83 8.15,1.38 16.39,1.94 24.6,2.89 14,0.93 28,-0.82 41.89,-2.14 5.08,-0.52 10.08,-1.55 15.09,-2.47 11.93,-2.15 23.16,-7.22 35.2,-8.83 a 212.12,212.12 0 0 0 31.12,-14.34 227.13,227.13 0 0 0 43.92,-31.76 c 28.8,-26.21 50.32,-60.08 62.92,-96.86 10.24,-31.26 14.29,-64.67 10.71,-97.42 -2.38,-29.55 -12.24,-58.2 -27,-83.83 q 18.6,-18.92 37.44,-37.6 c 6.86,10.32 12,21.66 17.36,32.78 a 354.55,354.55 0 0 1 15.9,47.65 37.31,37.31 0 0 1 4,12.4 c 1.35,11.19 3.75,22.27 4,33.57 0.11,6.63 0.91,13.23 0.9,19.87 A 372.55,372.55 0 0 1 597.08,364 Z"
         id="path1132"
         style="fill:url(#linearGradient2559);fill-opacity:1;stroke:none;stroke-opacity:0.14285715"
         inkscape:connector-curvature="0" />
      <path
         class="cls-7"
         d="m 596.58,159.3 v 0 l -0.42,-0.71 z"
         id="path1134"
         inkscape:connector-curvature="0"
         style="fill:#00b9e2" />
      <path
         inkscape:connector-curvature="0"
         style="fill:#00acd8;fill-opacity:1"
         class="cls-8"
         d="m 400.28,235.26 5.12,-0.89 c -1.64,2.07 -3.35,4.08 -5,6.11 q -0.09,-2.61 -0.12,-5.22 z"
         id="path1136" />
      <path
         style="fill:#00a4d1;fill-opacity:1"
         class="cls-9"
         d="m 206.75,246.44 1.42,-0.61 c 49.14,-0.49 98.31,0.12 147.45,-0.08 3,0 5.92,0.28 8.87,0.6 -8.11,1.39 -16.33,0.24 -24.49,0.59 -44.59,0.1 -89.19,0.39 -133.77,0.11 z"
         id="path1138"
         inkscape:connector-curvature="0" />
      <path
         style="fill:#00add9;fill-opacity:1"
         class="cls-10"
         d="m 363.46,360.11 a 56.91,56.91 0 0 1 8.53,-10.3 66.65,66.65 0 0 1 -3.93,9.06 139.13,139.13 0 0 0 15.95,0.06 c 10,-0.5 20,0.44 30,0.16 12.33,-0.34 24.67,-0.26 37,0 6.73,0.24 13.69,-1.56 20.18,1 -11.05,0.44 -22.12,0.13 -33.18,0.22 -24.86,-0.1 -49.72,0.32 -74.55,-0.2 z"
         id="path1140"
         inkscape:connector-curvature="0" />
      <path
         class="cls-10"
         d="m 166.82,496.78 c 7.89,-10.73 16.37,-21 25,-31.18 a 42.32,42.32 0 0 1 -5.33,8.85 c -3.79,4.59 -7,9.66 -10.93,14.11 -1.81,2.13 -3.79,4.17 -5.06,6.68 0.68,2.44 2.73,4.11 4.53,5.74 a 146.11,146.11 0 0 0 21.65,15.25 29.92,29.92 0 0 1 7.3,6.16 c -13.59,-6.65 -25.55,-16.05 -37.16,-25.61 z"
         id="path1142"
         inkscape:connector-curvature="0"
         style="fill:#3597b9" />
      <path
         class="cls-11"
         d="m 272,401 a 75.57,75.57 0 0 1 10,-0.38 c 49.95,0.15 99.9,-0.16 149.85,0.17 -4.69,2 -9.89,1.32 -14.85,1.36 -42.34,0 -84.68,0.13 -127,0.09 a 162.89,162.89 0 0 1 -18.49,-0.4 z"
         id="path1144"
         inkscape:connector-curvature="0"
         style="fill:#2893b3" />
      <path
         class="cls-12"
         d="m 107.7,415.89 a 11.16,11.16 0 0 1 4.09,8.47 88,88 0 0 1 -4.09,-8.47 z"
         id="path1146"
         inkscape:connector-curvature="0"
         style="fill:#3897b5" />
      <path
         style="fill:#000000;fill-opacity:0"
         class="cls-13"
         d="m 76.8,467.7 c 1.89,0.87 3.76,1.76 5.64,2.66 l -2.63,2.49 c -1.02,-1.71 -2.03,-3.42 -3.01,-5.15 z"
         id="path1148"
         inkscape:connector-curvature="0" />
      <path
         style="fill:#009bca;fill-opacity:1"
         class="cls-14"
         d="m 111.75,513 c 4.28,4.23 8.54,8.48 12.73,12.8 A 22.87,22.87 0 0 1 111.75,513 Z"
         id="path1150"
         inkscape:connector-curvature="0" />
      <path
         class="cls-15"
         d="m 394.08,591.92 c 2.07,-0.64 4.15,-1.25 6.24,-1.86 a 29.08,29.08 0 0 1 -6.24,1.86 z"
         id="path1152"
         inkscape:connector-curvature="0"
         style="fill:#54aaad" />
      <path
         class="cls-16"
         d="m 416,625.15 2.27,-0.8 z"
         id="path1154"
         inkscape:connector-curvature="0"
         style="fill:#7999a7" />
    </g>
  </g>
</svg>
